<svg version="1.0" xmlns="http://www.w3.org/2000/svg"
 width="714.000000pt" height="648.000000pt" viewBox="0 0 714.000000 648.000000"
 preserveAspectRatio="xMidYMid meet">

<g transform="translate(0.000000,648.000000) scale(0.100000,-0.100000)"
fill="#3D6CE5" stroke="none">
<path d="M1825 5448 c-187 -35 -345 -202 -375 -394 -7 -46 -10 -342 -8 -884
l3 -815 23 -37 c14 -22 40 -44 65 -56 28 -13 195 -43 517 -93 261 -40 478 -75
482 -79 4 -3 -189 -36 -430 -74 -567 -88 -568 -88 -609 -128 -18 -18 -38 -48
-43 -68 -6 -21 -10 -344 -10 -845 0 -879 1 -888 55 -996 61 -119 197 -221 332
-249 74 -16 183 -8 253 18 30 11 744 359 1585 775 842 415 1722 849 1956 964
391 193 430 215 482 266 190 190 187 493 -6 674 -53 49 -98 76 -278 165 -1117
551 -3204 1580 -3439 1695 -354 173 -409 189 -555 161z m151 -322 c35 -13
3272 -1606 3714 -1828 118 -60 191 -102 203 -119 44 -62 38 -146 -15 -194 -20
-18 -815 -416 -1968 -985 -1873 -924 -1937 -955 -1992 -955 -69 0 -103 21
-135 85 l-23 44 0 733 c0 403 3 733 8 733 9 0 1475 230 1715 269 203 33 232
47 262 126 31 80 -8 170 -87 199 -24 8 -245 47 -493 85 -904 141 -1351 211
-1378 217 l-27 6 2 741 c3 724 3 743 23 777 21 37 92 80 131 80 12 0 39 -6 60
-14z"/>
</g>
</svg>
